# xmcd
#
# Track frame offsets:
#	150
#	16342
#	31647
#	48921
#	65864
#	83287
#	108094
#	122658
#	140195
#	159306
#	175592
#	192660
#	209188
#	226661
#	251084
#	266367
#	284777
#	303225
#
# Disc length: 4397 seconds
#
# Revision: 0
# Processed by: cddbd v1.5.1PL0 Copyright (c) Steve Scherf et al.
# Submitted via: audiograbber 1.83.01
#
DISCID=f8112b12
DTITLE=сборник - Money Хитс.
DYEAR=1900
DGENRE=
TTITLE0=Диана Гурцкая. - Я люблю вас всех.
TTITLE1=Отпетые мошенники. - Насосы.
TTITLE2=Руки вверх! - Уходи, если сможешь.
TTITLE3=Стрелки Int and Борис Моисеев. - Sex-XL революция.
TTITLE4=Лена Калинина. - Ла-ла-ла.
TTITLE5=Дискотека Авария. - Disco Superstar.
TTITLE6=Дилижанс. - Хочу мужа. (Rmx)
TTITLE7=Беглец. - Кольцо обручальное.
TTITLE8=Валерия. - Синий синий иней.
TTITLE9=Анжелика. - Такие дела.
TTITLE10=Акула. - Любовь моя.
TTITLE11=Ураган. - Максимум.
TTITLE12=Роман Рябцев. - Намек на рассвет. (House Mix)
TTITLE13=Reflex. - Сойти с ума. (Rmx)
TTITLE14=Анжелика Варум. - Стоп, любопытство.
TTITLE15=Инга Гай. - Желтое солнце.
TTITLE16=Авраам Руссо. - Amour.
TTITLE17=Тату. - 30 минут. (Moscow Grooves Institute Rmx)
EXTD=
EXTT0=
EXTT1=
EXTT2=
EXTT3=
EXTT4=
EXTT5=
EXTT6=
EXTT7=
EXTT8=
EXTT9=
EXTT10=
EXTT11=
EXTT12=
EXTT13=
EXTT14=
EXTT15=
EXTT16=
EXTT17=
PLAYORDER=
